<svg xmlns="http://www.w3.org/2000/svg"  viewBox="0 0 64 64" width="64px" height="64px"><path fill="#dadcec" d="M40.172,44.001l3.917-3.917l2.828,2.828l-3.917,3.917L40.172,44.001z"/><path fill="#cda1a7" d="M44.915,45.255l0.346-0.346c1.562-1.562,4.095-1.562,5.657,0l10.26,10.26 c1.562,1.562,1.562,4.095,0,5.657l-0.346,0.346c-1.562,1.562-4.095,1.562-5.657,0l-10.26-10.26 C43.353,49.35,43.353,46.817,44.915,45.255z"/><path fill="#c4939c" d="M43.586,46.586L43.586,46.586c0.828-0.828,2.17-0.828,2.998,0l12.919,12.919 c0.828,0.828,0.828,2.17,0,2.998l0,0c-0.828,0.828-2.17,0.828-2.998,0L43.586,49.585C42.758,48.757,42.758,47.414,43.586,46.586z"/><path fill="#ffeb9b" d="M25,1C11.745,1,1,11.745,1,25s10.745,24,24,24s24-10.745,24-24S38.255,1,25,1z"/><path fill="#f6d397" d="M11.14,38.86l27.72-27.72c1.562-1.562,4.094-1.563,5.657-0.001 c0.167,0.167,0.318,0.348,0.453,0.541c7.396,11,4.474,25.912-6.525,33.308C30.354,50.428,19.776,50.433,11.68,45 c-1.819-1.254-2.277-3.745-1.023-5.564C10.799,39.23,10.961,39.037,11.14,38.86z"/><path fill="#8d6c9f" d="M61.88,54.46L51.54,44.12c-0.956-0.948-2.254-1.471-3.6-1.45c0-0.14-2.77-2.91-2.77-2.91 c8.154-11.142,5.732-26.785-5.41-34.939s-26.785-5.732-34.939,5.41s-5.732,26.785,5.41,34.939c8.792,6.434,20.737,6.434,29.529,0 c0,0,2.78,2.72,2.91,2.77s0,0,0,0.07c-0.002,1.327,0.523,2.6,1.46,3.54l10.33,10.33c1.952,1.952,5.118,1.952,7.07,0l0.34-0.34 c1.952-1.952,1.952-5.118,0-7.07L61.88,54.46z M2,25C2,12.297,12.297,2,25,2s23,10.297,23,23S37.703,48,25,48S2,37.703,2,25z M44.12,44.46c-0.376,0.387-0.687,0.833-0.92,1.32l-1.87-1.87c0.925-0.799,1.791-1.665,2.59-2.59l1.88,1.88 c-0.487,0.233-0.933,0.544-1.32,0.92L44.12,44.46z M60.46,60.12l-0.34,0.34c-1.171,1.17-3.069,1.17-4.24,0L45.54,50.12 c-1.17-1.171-1.17-3.069,0-4.24l0.34-0.34c1.171-1.17,3.069-1.17,4.24,0l10.34,10.34C61.63,57.051,61.63,58.949,60.46,60.12z"/><g><path fill="#bbdef9" d="M25,7C15.059,7,7,15.059,7,25s8.059,18,18,18s18-8.059,18-18S34.941,7,25,7z"/><path fill="#8d6c9f" d="M38.44,11.57c-7.42-7.42-19.45-7.42-26.87,0s-7.42,19.45,0,26.87s19.45,7.42,26.87,0c0,0,0,0,0,0 c7.42-7.326,7.496-19.28,0.17-26.7C38.554,11.683,38.497,11.626,38.44,11.57z M37,37c-6.627,6.65-17.391,6.669-24.042,0.042 S6.289,19.65,12.917,13s17.391-6.669,24.042-0.042C36.972,12.972,36.986,12.986,37,13c6.627,6.564,6.679,17.258,0.114,23.886 C37.076,36.924,37.038,36.962,37,37z"/><path fill="#8d6c9f" d="M31.2,14.72c0.83,0.502,1.595,1.103,2.28,1.79c0.389,0.392,1.023,0.394,1.415,0.005 s0.394-1.023,0.005-1.415c-0.802-0.805-1.699-1.51-2.67-2.1c-0.511-0.21-1.095,0.033-1.306,0.543 c-0.17,0.413-0.046,0.89,0.306,1.167L31.2,14.72z M26.38,11.07c-4.166-0.419-8.3,1.049-11.27,4 c-0.419,0.359-0.468,0.991-0.109,1.41s0.991,0.468,1.41,0.109c0.039-0.033,0.076-0.07,0.109-0.109 c2.542-2.544,6.091-3.814,9.67-3.46c0.552,0.055,1.045-0.348,1.1-0.9s-0.348-1.045-0.9-1.1L26.38,11.07z"/><path fill="#8d6c9f" d="M34.19,32.78c-0.419-0.359-1.051-0.31-1.41,0.109c-0.321,0.374-0.321,0.927,0,1.301l1.41,1.41 c0.419,0.359,1.051,0.31,1.41-0.109c0.321-0.374,0.321-0.927,0-1.301L34.19,32.78z M15.81,32.78l-1.41,1.41 c-0.419,0.359-0.468,0.991-0.109,1.41s0.991,0.468,1.41,0.109c0.039-0.034,0.076-0.07,0.109-0.109l1.41-1.41 c0.359-0.419,0.31-1.051-0.109-1.41C16.737,32.459,16.184,32.459,15.81,32.78z M39,24h-2c-0.552,0-1,0.448-1,1s0.448,1,1,1h2 c0.552,0,1-0.448,1-1S39.552,24,39,24z M14,25c0-0.552-0.448-1-1-1h-2c-0.552,0-1,0.448-1,1s0.448,1,1,1h2 C13.552,26,14,25.552,14,25z M25,36c-0.552,0-1,0.448-1,1v2c0,0.552,0.448,1,1,1s1-0.448,1-1v-2C26,36.448,25.552,36,25,36z M38.28,29.55l-1.84-0.78c-0.5-0.235-1.095-0.021-1.331,0.479c-0.235,0.5-0.021,1.095,0.479,1.331 c0.023,0.011,0.047,0.021,0.071,0.03l1.84,0.78c0.5,0.235,1.095,0.021,1.331-0.479c0.235-0.5,0.021-1.095-0.479-1.331 C38.328,29.569,38.304,29.559,38.28,29.55z M20.7,35.13c-0.508-0.215-1.094,0.022-1.31,0.53l-0.78,1.84 c-0.235,0.5-0.021,1.095,0.479,1.331c0.5,0.235,1.095,0.021,1.331-0.479c0.011-0.023,0.021-0.047,0.03-0.071l0.78-1.84 C21.445,35.932,21.208,35.346,20.7,35.13z M14.8,29.12c-0.208-0.51-0.789-0.756-1.3-0.55l-1.85,0.75 c-0.524,0.176-0.806,0.743-0.63,1.266c0.176,0.524,0.743,0.806,1.266,0.63c0.039-0.013,0.077-0.028,0.113-0.046l1.85-0.75 C14.76,30.212,15.006,29.631,14.8,29.12z M30.42,35.75c-0.238-0.498-0.836-0.709-1.334-0.47c-0.456,0.218-0.677,0.741-0.516,1.22 l0.75,1.85c0.238,0.498,0.836,0.709,1.334,0.47c0.456-0.218,0.677-0.741,0.516-1.22L30.42,35.75z"/></g><g><path fill="#d2edff" d="M25,18c-3.866,0-7,3.134-7,7s3.134,7,7,7s7-3.134,7-7S28.866,18,25,18z"/><path fill="#f3f3f3" d="M21,17c-2.209,0-4,1.791-4,4s1.791,4,4,4s4-1.791,4-4S23.209,17,21,17z M29.5,28 c-0.828,0-1.5,0.672-1.5,1.5s0.672,1.5,1.5,1.5s1.5-0.672,1.5-1.5S30.328,28,29.5,28z"/></g></svg>